<svg width="131" height="131" viewBox="0 0 131 131" fill="none" xmlns="http://www.w3.org/2000/svg">
<path d="M103.708 60.0416H70.9583V27.2916C70.9583 25.844 70.3833 24.4557 69.3596 23.432C68.336 22.4084 66.9477 21.8333 65.5 21.8333C64.0524 21.8333 62.664 22.4084 61.6404 23.432C60.6168 24.4557 60.0417 25.844 60.0417 27.2916V60.0416H27.2917C25.844 60.0416 24.4557 60.6167 23.4321 61.6404C22.4084 62.664 21.8333 64.0523 21.8333 65.5C21.8333 66.9476 22.4084 68.336 23.4321 69.3596C24.4557 70.3832 25.844 70.9583 27.2917 70.9583H60.0417V103.708C60.0417 105.156 60.6168 106.544 61.6404 107.568C62.664 108.592 64.0524 109.167 65.5 109.167C66.9477 109.167 68.336 108.592 69.3596 107.568C70.3833 106.544 70.9583 105.156 70.9583 103.708V70.9583H103.708C105.156 70.9583 106.544 70.3832 107.568 69.3596C108.592 68.336 109.167 66.9476 109.167 65.5C109.167 64.0523 108.592 62.664 107.568 61.6404C106.544 60.6167 105.156 60.0416 103.708 60.0416Z" fill="white"/>
</svg>
