<svg width="50" height="51" viewBox="0 0 50 51" fill="none" xmlns="http://www.w3.org/2000/svg">
<path d="M17.7084 40.375C17.0903 40.375 16.4861 40.5619 15.9722 40.9122C15.4583 41.2624 15.0578 41.7603 14.8212 42.3427C14.5847 42.9251 14.5228 43.566 14.6434 44.1843C14.764 44.8027 15.0616 45.3706 15.4986 45.8164C15.9357 46.2622 16.4925 46.5658 17.0987 46.6888C17.7049 46.8117 18.3332 46.7486 18.9042 46.5074C19.4753 46.2661 19.9633 45.8576 20.3067 45.3334C20.6501 44.8092 20.8334 44.1929 20.8334 43.5625C20.8334 42.7171 20.5041 41.9064 19.9181 41.3086C19.332 40.7108 18.5372 40.375 17.7084 40.375ZM39.5834 34H14.5834C14.0308 34 13.5009 33.7761 13.1102 33.3776C12.7195 32.9791 12.5 32.4386 12.5 31.875C12.5 31.3114 12.7195 30.7709 13.1102 30.3724C13.5009 29.9739 14.0308 29.75 14.5834 29.75H32.2734C33.6305 29.7455 34.9497 29.2926 36.0332 28.459C37.1167 27.6255 37.9062 26.4562 38.2834 25.1265L41.5863 13.3342C41.6749 13.0179 41.6904 12.685 41.6314 12.3616C41.5724 12.0382 41.4407 11.7332 41.2465 11.4706C41.0524 11.208 40.8011 10.9949 40.5125 10.8482C40.2239 10.7015 39.9058 10.6251 39.5834 10.625H14.0397C13.6085 9.38689 12.8134 8.31451 11.763 7.55398C10.7125 6.79345 9.45774 6.38176 8.16958 6.375H6.25002C5.69749 6.375 5.16758 6.59888 4.77688 6.9974C4.38618 7.39591 4.16669 7.93641 4.16669 8.5C4.16669 9.06359 4.38618 9.60409 4.77688 10.0026C5.16758 10.4011 5.69749 10.625 6.25002 10.625H8.16958C8.62184 10.6266 9.06141 10.7776 9.42249 11.0554C9.78357 11.3331 10.0467 11.7227 10.1725 12.1658L10.4965 13.3234L10.497 13.3342L13.915 25.5363C12.3245 25.7108 10.8602 26.5008 9.82349 27.7434C8.78681 28.9861 8.25672 30.5869 8.34237 32.2162C8.42802 33.8455 9.12289 35.3794 10.2839 36.5018C11.4449 37.6243 12.9837 38.25 14.5834 38.25H39.5834C40.1359 38.25 40.6658 38.0261 41.0565 37.6276C41.4472 37.2291 41.6667 36.6886 41.6667 36.125C41.6667 35.5614 41.4472 35.0209 41.0565 34.6224C40.6658 34.2239 40.1359 34 39.5834 34ZM36.8215 14.875L34.2774 23.9581C34.1517 24.4016 33.8884 24.7915 33.5271 25.0695C33.1658 25.3475 32.7259 25.4986 32.2734 25.5H18.2383L17.7072 23.6041L15.2634 14.875H36.8215ZM34.375 40.375C33.757 40.375 33.1528 40.5619 32.6389 40.9122C32.125 41.2624 31.7244 41.7603 31.4879 42.3427C31.2514 42.9251 31.1895 43.566 31.3101 44.1843C31.4306 44.8027 31.7283 45.3706 32.1653 45.8164C32.6023 46.2622 33.1592 46.5658 33.7654 46.6888C34.3716 46.8117 34.9999 46.7486 35.5709 46.5074C36.1419 46.2661 36.63 45.8576 36.9734 45.3334C37.3167 44.8092 37.5 44.1929 37.5 43.5625C37.5 42.7171 37.1708 41.9064 36.5847 41.3086C35.9987 40.7108 35.2038 40.375 34.375 40.375Z" fill="white"/>
</svg>
