<svg width="35" height="35" viewBox="0 0 35 35" fill="none" xmlns="http://www.w3.org/2000/svg">
<path d="M26.1333 16.9458C26.0639 16.7668 25.9598 16.6033 25.8271 16.4646L18.5354 9.1729C18.3994 9.03693 18.238 8.92907 18.0604 8.85548C17.8827 8.78189 17.6923 8.74402 17.5 8.74402C17.1116 8.74402 16.7392 8.89829 16.4646 9.1729C16.3286 9.30888 16.2208 9.4703 16.1472 9.64796C16.0736 9.82561 16.0357 10.016 16.0357 10.2083C16.0357 10.5967 16.19 10.9691 16.4646 11.2437L21.2771 16.0417H10.2083C9.82156 16.0417 9.45063 16.1953 9.17714 16.4688C8.90365 16.7423 8.75 17.1132 8.75 17.5C8.75 17.8868 8.90365 18.2577 9.17714 18.5312C9.45063 18.8047 9.82156 18.9583 10.2083 18.9583H21.2771L16.4646 23.7562C16.3279 23.8918 16.2194 24.0531 16.1454 24.2308C16.0713 24.4085 16.0332 24.5991 16.0332 24.7917C16.0332 24.9842 16.0713 25.1748 16.1454 25.3525C16.2194 25.5302 16.3279 25.6915 16.4646 25.8271C16.6002 25.9638 16.7614 26.0722 16.9392 26.1463C17.1169 26.2203 17.3075 26.2584 17.5 26.2584C17.6925 26.2584 17.8831 26.2203 18.0608 26.1463C18.2386 26.0722 18.3998 25.9638 18.5354 25.8271L25.8271 18.5354C25.9598 18.3967 26.0639 18.2332 26.1333 18.0542C26.2792 17.6991 26.2792 17.3009 26.1333 16.9458Z" fill="black"/>
</svg>
