<svg width="241" height="150" viewBox="0 0 241 150" fill="none" xmlns="http://www.w3.org/2000/svg">
<path d="M120.988 150C105.688 150 89.8875 146.2 73.9875 138.75C61.5375 132.9 48.9875 124.8 36.6875 114.65C15.9375 97.5 3.13751 80.5 2.58751 79.8C0.437506 76.95 0.437506 73.05 2.58751 70.2C3.13751 69.5 15.9375 52.5 36.6875 35.35C48.9875 25.2 61.5375 17.1 73.9875 11.25C89.8875 3.8 105.688 0 120.988 0C136.288 0 152.088 3.8 167.988 11.25C180.438 17.1 192.988 25.2 205.288 35.35C226.038 52.5 238.887 69.5 239.387 70.2C241.537 73.05 241.537 76.95 239.387 79.8C238.837 80.5 226.038 97.5 205.288 114.65C192.988 124.8 180.438 132.9 167.988 138.75C152.088 146.2 136.288 150 120.988 150ZM19.2875 75C31.8375 89.85 73.2875 134 120.988 134C168.788 134 210.137 89.85 222.688 75C210.137 60.15 168.688 16 120.988 16C73.1875 16 31.8375 60.15 19.2875 75Z" fill="black"/>
<path d="M120.988 111C101.138 111 84.9875 94.85 84.9875 75C84.9875 55.15 101.138 39 120.988 39C140.838 39 156.988 55.15 156.988 75C156.988 94.85 140.838 111 120.988 111ZM120.988 55C109.938 55 100.988 63.95 100.988 75C100.988 86.05 109.938 95 120.988 95C132.038 95 140.988 86.05 140.988 75C140.988 63.95 132.038 55 120.988 55Z" fill="black"/>
</svg>
